# This file uses centimeters as units for non-parametric coordinates.

mtllib Frame1.mtl
g default
v -8.091188 4.328308 0.938669
v 8.079956 4.328291 0.938669
v 8.079950 23.988091 0.938669
v -8.091194 23.988108 0.938669
v -8.091190 4.328308 1.001000
v 8.079956 4.328297 1.001000
v 8.079952 23.988091 1.001000
v -8.091194 23.988102 1.001000
vt 0.637904 0.575760
vt 0.899098 0.577432
vt 0.897548 0.895632
vt 0.636366 0.894010
vt 0.637904 0.575760
vt 0.899098 0.577432
vt 0.897548 0.895632
vt 0.636366 0.894010
vt 0.637904 0.575760
vt 0.899098 0.577432
vt 0.897548 0.895632
vt 0.636366 0.894010
vn -0.000000 -0.000000 1.000000
vn -0.000000 -0.000000 1.000000
vn -0.000000 -0.000000 1.000000
vn -0.000000 -0.000000 1.000000
vn 0.000000 0.000000 -1.000000
vn 0.000000 0.000000 -1.000000
vn 0.000000 0.000000 -1.000000
vn 0.000000 0.000000 -1.000000
vn -0.000001 -1.000000 0.000052
vn -0.000001 -1.000000 0.000052
vn -0.000000 -0.000000 1.000000
vn -0.000000 -0.000000 1.000000
vn 1.000000 0.000000 -0.000015
vn 1.000000 0.000000 -0.000015
vn -0.000000 -0.000000 1.000000
vn -0.000000 -0.000000 1.000000
vn 0.000001 1.000000 0.000045
vn 0.000001 1.000000 0.000045
vn -0.000000 -0.000000 1.000000
vn -0.000000 -0.000000 1.000000
vn -1.000000 -0.000000 -0.000015
vn -1.000000 -0.000000 -0.000015
vn -0.000000 -0.000000 1.000000
vn -0.000000 -0.000000 1.000000
s off
g Glass1 Frame1 pictureframe
usemtl rsMaterial8SG
f 5/9/1 6/10/2 7/11/3 8/12/4
f 1/5/5 4/8/6 3/7/7 2/6/8
f 1/1/9 2/2/10 6/10/11 5/9/12
f 2/2/13 3/3/14 7/11/15 6/10/16
f 3/3/17 4/4/18 8/12/19 7/11/20
f 4/4/21 1/1/22 5/9/23 8/12/24
g default
v 10.452789 1.510925 -2.029854
v 10.452789 26.805683 -2.029854
v -10.464024 26.805683 -2.029854
v -10.464024 1.510925 -2.029854
v -9.283665 2.912598 0.717238
v 9.272003 2.912598 0.717238
v 9.272003 25.403797 0.717238
v -9.283665 25.403797 0.717238
v -8.091190 4.328308 0.382667
v 8.079956 4.328308 0.382667
v 8.079956 23.988102 0.382667
v -8.091190 23.988102 0.382667
v 12.009583 0.008362 2.002937
v 11.867065 0.164673 2.151893
v 12.009583 28.302952 2.002937
v 11.860138 28.139042 2.151313
v -11.891727 28.302952 1.999519
v -11.761021 28.146641 2.151893
v -11.891727 0.008362 1.999519
v -11.748966 0.179077 2.150825
v 10.360535 1.620331 1.933776
v 10.595154 1.366821 2.048438
v -10.368504 1.624405 1.930053
v -10.602787 1.363785 2.047500
v 10.359283 26.694584 1.932425
v 10.597076 26.951756 2.047408
v -10.370304 26.694355 1.932189
v -10.600101 26.949772 2.048873
v -8.182529 4.235687 1.294570
v -8.091190 4.328308 1.203475
v 8.171295 4.235687 1.294570
v 8.079956 4.328308 1.203475
v 8.171295 24.080952 1.294570
v 8.079956 23.988102 1.203475
v -8.182529 24.080952 1.294570
v -8.091190 23.988102 1.203475
v 11.867065 0.164673 -2.144951
v 12.009583 0.008362 -1.995995
v 11.860138 28.139042 -2.144371
v 12.009583 28.302952 -1.995995
v -11.761021 28.146641 -2.144951
v -11.891727 28.302952 -1.992577
v -11.748966 0.179077 -2.143883
v -11.891727 0.008362 -1.992577
v -9.283665 2.912598 1.236884
v -9.225864 2.971359 1.294570
v 9.272003 2.912598 1.236884
v 9.214661 2.971359 1.294570
v 9.272003 25.403797 1.236884
v 9.214661 25.345036 1.294570
v -9.283665 25.403797 1.236884
v -9.225864 25.345036 1.294570
vt 0.637904 0.575760
vt 0.899098 0.577432
vt 0.897548 0.895632
vt 0.636366 0.894010
vt 0.079760 0.024161
vt 0.082104 0.020612
vt 0.471230 0.019927
vt 0.010761 0.092406
vt 0.014619 0.556241
vt 0.011158 0.553536
vt 0.083376 0.625668
vt 0.475085 0.620354
vt 0.472957 0.623948
vt 0.550592 0.987533
vt 0.539296 0.089248
vt 0.551666 0.483297
vt 0.960136 0.509822
vt 0.601633 0.536942
vt 0.959297 0.962319
vt 0.934638 0.537805
vt 0.575388 0.961652
vt 0.933812 0.934449
vt 0.576208 0.509121
vt 0.600841 0.933702
vt 0.964572 0.505074
vt 0.985975 0.988090
vt 0.963771 0.967141
vt 0.571020 0.966443
vt 0.571778 0.504229
vt 0.986987 0.483919
vt 0.628266 0.567252
vt 0.908082 0.568230
vt 0.907184 0.904140
vt 0.627394 0.903225
vt 0.079806 0.089842
vt 0.473711 0.089237
vt 0.080316 0.556325
vt 0.474622 0.554834
vt 0.106717 0.530828
vt 0.082935 0.093108
vt 0.450196 0.529569
vt 0.083535 0.552960
vt 0.449394 0.114693
vt 0.471587 0.551557
vt 0.106246 0.115286
vt 0.470556 0.092701
vt 0.014144 0.089832
vt 0.080882 0.622047
vt 0.540171 0.554808
vt 0.473587 0.023671
vt 0.607673 0.542527
vt 0.608939 0.543830
vt 0.607949 0.926595
vt 0.928789 0.543590
vt 0.927533 0.544898
vt 0.927772 0.928863
vt 0.926512 0.927559
vt 0.606692 0.927917
vt 0.626305 0.565255
vt 0.910029 0.566219
vt 0.909145 0.906142
vt 0.625449 0.905255
vt 0.542718 0.092056
vt 0.543464 0.552235
vn 0.000000 0.000000 -1.000000
vn 0.000000 0.000000 -1.000000
vn 0.000000 0.000000 -1.000000
vn 0.000000 0.000000 -1.000000
vn -0.000000 -0.000000 1.000000
vn -0.000000 -0.000000 1.000000
vn -0.000000 -0.000000 1.000000
vn -0.000000 -0.000000 1.000000
vn -0.000275 -0.676320 0.736608
vn -0.000275 -0.676320 0.736608
vn -0.000275 -0.676320 0.736608
vn -0.000275 -0.676320 0.736608
vn 0.713518 0.000095 0.700637
vn 0.713518 0.000095 0.700637
vn 0.713518 0.000095 0.700637
vn 0.713518 0.000095 0.700637
vn 0.000066 0.684596 0.728922
vn 0.000066 0.684596 0.728922
vn 0.000066 0.684596 0.728922
vn 0.000066 0.684596 0.728922
vn -0.743098 -0.000172 0.669182
vn -0.743098 -0.000172 0.669182
vn -0.743098 -0.000172 0.669182
vn -0.743098 -0.000172 0.669182
vn -0.660878 0.000015 0.750493
vn -0.057594 0.050059 0.997084
vn -0.057527 -0.050104 0.997086
vn -0.660853 0.000015 0.750515
vn -0.000024 0.616993 0.786968
vn -0.000024 0.617360 0.786681
vn 0.061015 0.051949 0.996784
vn 0.664541 -0.000023 0.747251
vn 0.664561 -0.000023 0.747234
vn 0.061087 -0.052047 0.996775
vn 0.000013 -0.617247 0.786770
vn 0.000013 -0.617607 0.786487
vn 0.000002 0.685467 0.728104
vn 0.000002 0.685467 0.728104
vn -0.745233 -0.000001 0.666805
vn -0.745233 -0.000001 0.666805
vn -0.000000 -0.685460 0.728110
vn -0.000000 -0.685460 0.728110
vn 0.745353 -0.000002 0.666670
vn 0.745353 -0.000002 0.666670
vn -0.047122 0.036594 0.998219
vn -0.047243 -0.036482 0.998217
vn 0.047022 -0.041024 0.998051
vn 0.046900 0.041009 0.998057
vn 0.706160 0.000000 0.708052
vn 0.706160 0.000000 0.708052
vn 0.706160 0.000000 0.708052
vn 0.706160 0.000000 0.708052
vn 0.000000 0.701209 0.712956
vn 0.000000 0.701209 0.712956
vn 0.000000 0.701209 0.712956
vn 0.000000 0.701209 0.712956
vn -0.706160 0.000000 0.708052
vn -0.706160 0.000000 0.708052
vn -0.706160 0.000000 0.708052
vn -0.706160 0.000000 0.708052
vn 0.000000 -0.700319 0.713830
vn 0.000000 -0.700319 0.713830
vn 0.000000 -0.700319 0.713830
vn 0.000000 -0.700319 0.713830
vn 0.000000 1.000000 0.000000
vn 0.000000 1.000000 0.000000
vn 0.000000 1.000000 0.000000
vn 0.000000 1.000000 0.000000
vn -1.000000 0.000000 0.000000
vn -1.000000 0.000000 0.000000
vn -1.000000 0.000000 0.000000
vn -1.000000 0.000000 0.000000
vn 0.000000 -1.000000 0.000000
vn 0.000000 -1.000000 0.000000
vn 0.000000 -1.000000 0.000000
vn 0.000000 -1.000000 0.000000
vn 1.000000 0.000000 0.000000
vn 1.000000 0.000000 0.000000
vn 1.000000 0.000000 0.000000
vn 1.000000 0.000000 0.000000
vn -0.000275 -0.676322 -0.736606
vn -0.000275 -0.676322 -0.736606
vn -0.000275 -0.676322 -0.736606
vn -0.000275 -0.676322 -0.736606
vn 0.713521 0.000095 -0.700634
vn 0.713521 0.000095 -0.700634
vn 0.713521 0.000095 -0.700634
vn 0.713521 0.000095 -0.700634
vn 0.000066 0.684599 -0.728920
vn 0.000066 0.684599 -0.728920
vn 0.000066 0.684599 -0.728920
vn 0.000066 0.684599 -0.728920
vn -0.743101 -0.000172 -0.669180
vn -0.743101 -0.000172 -0.669180
vn -0.743101 -0.000172 -0.669180
vn -0.743101 -0.000172 -0.669180
vn -0.046682 -0.036455 -0.998244
vn -0.046548 0.036465 -0.998250
vn 0.046528 -0.040677 -0.998088
vn 0.046432 0.040630 -0.998095
vn 1.000000 0.000000 0.000000
vn 1.000000 0.000000 0.000000
vn 1.000000 0.000000 0.000000
vn 1.000000 0.000000 0.000000
vn 0.000000 1.000000 0.000000
vn 0.000000 1.000000 0.000000
vn 0.000000 1.000000 0.000000
vn 0.000000 1.000000 0.000000
vn -1.000000 0.000000 0.000000
vn -1.000000 0.000000 0.000000
vn -1.000000 0.000000 0.000000
vn -1.000000 0.000000 0.000000
vn 0.000000 -1.000000 0.000000
vn 0.000000 -1.000000 0.000000
vn 0.000000 -1.000000 0.000000
vn 0.000000 -1.000000 0.000000
vn -0.706406 0.000000 0.707807
vn -0.706406 0.000000 0.707807
vn -0.706406 0.000000 0.707807
vn -0.706406 0.000000 0.707807
vn 0.000000 -0.700544 0.713609
vn 0.000000 -0.700544 0.713609
vn 0.000000 -0.700544 0.713609
vn 0.000000 -0.700544 0.713609
vn 0.709214 0.000000 0.704993
vn 0.709214 0.000000 0.704993
vn 0.709214 0.000000 0.704993
vn 0.709214 0.000000 0.704993
vn 0.000000 0.700545 0.713608
vn 0.000000 0.700545 0.713608
vn 0.000000 0.700545 0.713608
vn 0.000000 0.700545 0.713608
vn 0.000000 -1.000000 0.000000
vn 0.000000 -1.000000 0.000000
vn 0.000000 -1.000000 0.000000
vn 0.000000 -1.000000 0.000000
vn 1.000000 0.000000 0.000000
vn 1.000000 0.000000 0.000000
vn 1.000000 0.000000 0.000000
vn 1.000000 0.000000 0.000000
vn 0.000000 1.000000 0.000000
vn 0.000000 1.000000 0.000000
vn 0.000000 1.000000 0.000000
vn 0.000000 1.000000 0.000000
vn -1.000000 0.000000 0.000000
vn -1.000000 0.000000 0.000000
vn -1.000000 0.000000 0.000000
vn -1.000000 0.000000 0.000000
vn -0.000000 0.000000 1.000000
vn 0.000000 0.000000 1.000000
vn 0.000000 0.000000 1.000000
vn -0.000000 0.000000 1.000000
vn 0.000000 0.000000 1.000000
vn 0.000000 0.000000 1.000000
vn -0.000000 0.000000 1.000000
vn -0.000000 0.000000 1.000000
s 1
g Frame1 pictureframe Frame1
usemtl rsMaterial11SG
f 9/57/25 12/55/26 11/53/27 10/51/28
s off
usemtl rsMaterial20SG
f 17/13/29 18/14/30 19/15/31 20/16/32
usemtl rsMaterial11SG
f 21/17/33 22/18/34 28/19/35 27/62/36
f 22/20/37 21/59/38 23/21/39 24/22/40
f 24/23/41 23/60/42 25/24/43 26/25/44
f 26/76/45 25/61/46 27/27/47 28/75/48
s 2
f 29/29/49 30/37/50 34/39/51 33/31/52
f 30/37/50 29/29/53 31/35/54 32/41/55
f 32/41/55 31/35/56 35/33/57 36/40/58
f 33/31/59 34/39/51 36/40/58 35/33/60
f 31/35/54 29/29/53 14/32/61 13/30/62
f 29/29/49 33/31/52 15/34/63 14/32/64
f 33/31/59 35/33/60 16/36/65 15/34/66
f 35/33/57 31/35/56 13/30/67 16/36/68
f 34/39/51 30/37/50 22/42/69 24/38/70
f 36/40/58 34/39/51 24/38/70 26/26/71
f 32/41/55 36/40/58 26/26/71 28/28/72
f 30/37/50 32/41/55 28/28/72 22/42/69
s off
f 37/71/73 38/43/74 44/46/75 43/74/76
f 38/43/77 37/71/78 39/72/79 40/44/80
f 40/44/81 39/72/82 41/73/83 42/45/84
f 42/45/85 41/73/86 43/74/87 44/46/88
f 38/43/89 40/44/90 18/14/91 17/13/92
f 40/44/93 42/45/94 19/15/95 18/14/96
f 42/45/97 44/46/98 20/16/99 19/15/100
f 44/46/101 38/43/102 17/13/103 20/16/104
f 45/52/105 46/47/106 52/48/107 51/58/108
f 46/47/109 45/52/110 47/54/111 48/49/112
f 48/49/113 47/54/114 49/56/115 50/50/116
f 50/50/117 49/56/118 51/58/119 52/48/120
s 1
f 9/57/25 10/51/28 47/54/121 45/52/122
f 10/51/28 11/53/27 49/56/123 47/54/121
f 11/53/27 12/55/26 51/58/124 49/56/123
f 12/55/26 9/57/25 45/52/122 51/58/124
s off
f 48/49/125 23/21/126 21/59/127 46/47/128
f 50/50/129 25/24/130 23/60/131 48/49/132
f 52/48/133 27/27/134 25/61/135 50/50/136
f 46/47/137 21/17/138 27/62/139 52/48/140
f 53/63/141 54/64/142 60/65/143 59/70/144
f 54/64/145 53/63/146 55/66/147 56/67/148
f 56/67/149 55/66/150 57/68/151 58/69/152
f 58/69/153 57/68/154 59/70/155 60/65/156
f 13/30/157 14/32/158 55/66/159 53/63/160
f 14/32/161 15/34/162 57/68/163 55/66/164
f 15/34/165 16/36/166 59/70/167 57/68/168
f 16/36/169 13/30/170 53/63/171 59/70/172
s 6
f 54/64/173 56/67/174 39/72/175 37/71/176
f 56/67/174 58/69/177 41/73/178 39/72/175
f 58/69/177 60/65/179 43/74/180 41/73/178
f 60/65/179 54/64/173 37/71/176 43/74/180
